<?xml version="1.0" encoding="utf-8"?>
<!-- Generator: Adobe Illustrator 16.0.4, SVG Export Plug-In . SVG Version: 6.00 Build 0)  -->
<!DOCTYPE svg PUBLIC "-//W3C//DTD SVG 1.1//EN" "http://www.w3.org/Graphics/SVG/1.1/DTD/svg11.dtd">
<svg version="1.1" id="Layer_1" xmlns="http://www.w3.org/2000/svg" xmlns:xlink="http://www.w3.org/1999/xlink" x="0px" y="0px"
	 width="215.277px" height="51.844px" viewBox="0 0 215.277 51.844" enable-background="new 0 0 215.277 51.844"
	 xml:space="preserve">
<g>
	<path fill="#F83363" d="M0,0.288h8.929v29.667c0,9.647,4.392,13.682,12.025,13.682c7.633,0,12.312-4.033,12.312-13.754V0.288h8.929
		v29.667c0,15.121-8.567,21.891-21.241,21.891C8.281,51.844,0,45.075,0,29.954V0.288z M36.723,3.528v26.715
		c0,11.377-6.265,16.922-15.77,16.922c-9.722,0-15.842-5.545-15.842-16.635V3.744H3.672V30.53c0,12.098,6.696,18.074,17.281,18.074
		c10.368,0,17.209-5.977,17.209-18.361V3.528H36.723z"/>
	<path fill="#1E8EF0" d="M62.567,0h2.81l31.323,32.618V0.288h8.929v50.981h-2.376L71.497,19.514v31.395h-8.93L62.567,0L62.567,0z
		 M67.752,47.596V10.584l34.491,34.418V3.672h-1.44v37.875L66.312,7.128v40.466h1.44V47.596z"/>
	<path fill="#DBE737" d="M126.647,0.288h8.93v50.621h-8.93V0.288z M130.392,3.672v43.922h1.439V3.672H130.392z"/>
	<path fill="#29CDAC" d="M156.599,0.288h32.906v8.209h-24.05v14.761h21.312v7.921h-21.312v19.729h-8.856V0.288z M186.192,3.672
		h-25.993v43.997h1.439V28.01h21.746v-1.439h-21.746V5.112h24.554V3.672z"/>
	<path fill="#F83363" d="M206.35,0.288h8.929v50.621h-8.929V0.288z M210.095,3.672v43.922h1.439V3.672H210.095z"/>
</g>
</svg>
