<?xml version="1.0" encoding="utf-8"?>
<!-- Generator: Adobe Illustrator 16.0.4, SVG Export Plug-In . SVG Version: 6.00 Build 0)  -->
<!DOCTYPE svg PUBLIC "-//W3C//DTD SVG 1.1//EN" "http://www.w3.org/Graphics/SVG/1.1/DTD/svg11.dtd">
<svg version="1.1" id="Layer_1" xmlns="http://www.w3.org/2000/svg" xmlns:xlink="http://www.w3.org/1999/xlink" x="0px" y="0px"
	 width="215.278px" height="51.845px" viewBox="0 0 215.278 51.845" enable-background="new 0 0 215.278 51.845"
	 xml:space="preserve">
<g>
	<path fill="#EC2C3A" d="M0,0.288h8.929v29.667c0,9.648,4.392,13.682,12.025,13.682s12.313-4.033,12.313-13.754V0.288h8.929v29.667
		c0,15.121-8.568,21.891-21.242,21.891C8.281,51.845,0,45.075,0,29.954V0.288z M36.723,3.528v26.714
		c0,11.378-6.265,16.922-15.77,16.922c-9.721,0-15.841-5.544-15.841-16.634V3.744h-1.44V30.53c0,12.098,6.696,18.074,17.281,18.074
		c10.369,0,17.209-5.977,17.209-18.362V3.528H36.723z"/>
	<path fill="#1E8EF0" d="M62.567,0h2.809l31.323,32.618V0.288h8.929v50.981h-2.376L71.497,19.514v31.395h-8.929V0z M67.752,47.596
		V10.584l34.491,34.419V3.672h-1.44v37.875L66.312,7.128v40.467H67.752z"/>
	<path fill="#DBE737" d="M126.647,0.288h8.929v50.621h-8.929V0.288z M130.392,3.672v43.923h1.439V3.672H130.392z"/>
	<path fill="#29CDAC" d="M156.599,0.288h32.906v8.209h-24.05v14.761h21.313v7.921h-21.313v19.729h-8.856V0.288z M186.192,3.672
		h-25.994v43.996h1.44V28.011h21.746v-1.44h-21.746V5.112h24.554V3.672z"/>
	<path fill="#EC2C3A" d="M206.35,0.288h8.929v50.621h-8.929V0.288z M210.095,3.672v43.923h1.439V3.672H210.095z"/>
</g>
</svg>
